<mxfile host="app.diagrams.net" modified="2022-07-12T18:52:55.648Z" agent="5.0 (Windows NT 10.0; Win64; x64) AppleWebKit/537.36 (KHTML, like Gecko) Chrome/103.0.0.0 Safari/537.36" etag="JCyiazpNwmBfTtmEnJcn" version="20.0.4" type="github">
  <diagram name="Page-1" id="74e2e168-ea6b-b213-b513-2b3c1d86103e">
    <mxGraphModel dx="1085" dy="623" grid="1" gridSize="10" guides="1" tooltips="1" connect="1" arrows="1" fold="1" page="1" pageScale="1" pageWidth="1100" pageHeight="850" background="none" math="0" shadow="0">
      <root>
        <mxCell id="0" />
        <mxCell id="1" parent="0" />
        <mxCell id="DSJDT47khyLrC-sAC1qn-1" value="Start" style="rounded=1;whiteSpace=wrap;html=1;absoluteArcSize=1;arcSize=14;strokeWidth=2;" vertex="1" parent="1">
          <mxGeometry x="420" y="40" width="110" height="40" as="geometry" />
        </mxCell>
        <mxCell id="DSJDT47khyLrC-sAC1qn-2" value="" style="endArrow=classic;html=1;rounded=0;" edge="1" parent="1">
          <mxGeometry width="50" height="50" relative="1" as="geometry">
            <mxPoint x="474.5" y="80" as="sourcePoint" />
            <mxPoint x="474.5" y="140" as="targetPoint" />
          </mxGeometry>
        </mxCell>
        <mxCell id="DSJDT47khyLrC-sAC1qn-53" style="edgeStyle=orthogonalEdgeStyle;rounded=0;orthogonalLoop=1;jettySize=auto;html=1;" edge="1" parent="1" source="DSJDT47khyLrC-sAC1qn-3">
          <mxGeometry relative="1" as="geometry">
            <mxPoint x="476.2550000000001" y="440" as="targetPoint" />
          </mxGeometry>
        </mxCell>
        <mxCell id="DSJDT47khyLrC-sAC1qn-3" value="Ask user to &lt;br&gt;guess a letter" style="strokeWidth=2;html=1;shape=mxgraph.flowchart.decision;whiteSpace=wrap;" vertex="1" parent="1">
          <mxGeometry x="423.13" y="280" width="106.25" height="110" as="geometry" />
        </mxCell>
        <mxCell id="DSJDT47khyLrC-sAC1qn-6" value="" style="endArrow=classic;html=1;rounded=0;" edge="1" parent="1">
          <mxGeometry width="50" height="50" relative="1" as="geometry">
            <mxPoint x="530" y="330" as="sourcePoint" />
            <mxPoint x="600" y="330" as="targetPoint" />
          </mxGeometry>
        </mxCell>
        <mxCell id="DSJDT47khyLrC-sAC1qn-8" value="Correct" style="text;html=1;strokeColor=none;fillColor=none;align=center;verticalAlign=middle;whiteSpace=wrap;rounded=0;" vertex="1" parent="1">
          <mxGeometry x="472.5" y="395" width="60" height="30" as="geometry" />
        </mxCell>
        <mxCell id="DSJDT47khyLrC-sAC1qn-9" value="Incorrect" style="text;html=1;strokeColor=none;fillColor=none;align=center;verticalAlign=middle;whiteSpace=wrap;rounded=0;" vertex="1" parent="1">
          <mxGeometry x="530" y="300" width="60" height="30" as="geometry" />
        </mxCell>
        <mxCell id="DSJDT47khyLrC-sAC1qn-10" value="Lose a life" style="rounded=1;whiteSpace=wrap;html=1;" vertex="1" parent="1">
          <mxGeometry x="600" y="300" width="120" height="60" as="geometry" />
        </mxCell>
        <mxCell id="DSJDT47khyLrC-sAC1qn-20" style="edgeStyle=orthogonalEdgeStyle;rounded=0;orthogonalLoop=1;jettySize=auto;html=1;entryX=0;entryY=0.5;entryDx=0;entryDy=0;" edge="1" parent="1" source="DSJDT47khyLrC-sAC1qn-11" target="DSJDT47khyLrC-sAC1qn-13">
          <mxGeometry relative="1" as="geometry" />
        </mxCell>
        <mxCell id="DSJDT47khyLrC-sAC1qn-24" style="edgeStyle=orthogonalEdgeStyle;rounded=0;orthogonalLoop=1;jettySize=auto;html=1;" edge="1" parent="1" source="DSJDT47khyLrC-sAC1qn-11">
          <mxGeometry relative="1" as="geometry">
            <mxPoint x="475" y="640" as="targetPoint" />
            <Array as="points">
              <mxPoint x="475" y="580" />
              <mxPoint x="475" y="580" />
            </Array>
          </mxGeometry>
        </mxCell>
        <mxCell id="DSJDT47khyLrC-sAC1qn-11" value="Guess next letter" style="strokeWidth=2;html=1;shape=mxgraph.flowchart.decision;whiteSpace=wrap;" vertex="1" parent="1">
          <mxGeometry x="420" y="445" width="112.5" height="120" as="geometry" />
        </mxCell>
        <mxCell id="DSJDT47khyLrC-sAC1qn-38" style="edgeStyle=orthogonalEdgeStyle;rounded=0;orthogonalLoop=1;jettySize=auto;html=1;entryX=0.5;entryY=0;entryDx=0;entryDy=0;" edge="1" parent="1" source="DSJDT47khyLrC-sAC1qn-13" target="DSJDT47khyLrC-sAC1qn-37">
          <mxGeometry relative="1" as="geometry" />
        </mxCell>
        <mxCell id="DSJDT47khyLrC-sAC1qn-13" value="Lose a life" style="rounded=1;whiteSpace=wrap;html=1;" vertex="1" parent="1">
          <mxGeometry x="600" y="475" width="120" height="60" as="geometry" />
        </mxCell>
        <mxCell id="DSJDT47khyLrC-sAC1qn-15" value="Incorrect" style="text;html=1;strokeColor=none;fillColor=none;align=center;verticalAlign=middle;whiteSpace=wrap;rounded=0;" vertex="1" parent="1">
          <mxGeometry x="532.5" y="470" width="60" height="30" as="geometry" />
        </mxCell>
        <mxCell id="DSJDT47khyLrC-sAC1qn-30" style="edgeStyle=orthogonalEdgeStyle;rounded=0;orthogonalLoop=1;jettySize=auto;html=1;" edge="1" parent="1" source="DSJDT47khyLrC-sAC1qn-25" target="DSJDT47khyLrC-sAC1qn-11">
          <mxGeometry relative="1" as="geometry">
            <mxPoint x="360" y="520" as="targetPoint" />
            <Array as="points">
              <mxPoint x="320" y="670" />
              <mxPoint x="320" y="510" />
            </Array>
          </mxGeometry>
        </mxCell>
        <mxCell id="DSJDT47khyLrC-sAC1qn-33" style="edgeStyle=orthogonalEdgeStyle;rounded=0;orthogonalLoop=1;jettySize=auto;html=1;entryX=0.5;entryY=0;entryDx=0;entryDy=0;" edge="1" parent="1" source="DSJDT47khyLrC-sAC1qn-25" target="DSJDT47khyLrC-sAC1qn-27">
          <mxGeometry relative="1" as="geometry" />
        </mxCell>
        <mxCell id="DSJDT47khyLrC-sAC1qn-25" value="Is the word complete?" style="rounded=1;whiteSpace=wrap;html=1;" vertex="1" parent="1">
          <mxGeometry x="406.25" y="640" width="140" height="60" as="geometry" />
        </mxCell>
        <mxCell id="DSJDT47khyLrC-sAC1qn-27" value="You win" style="rounded=1;whiteSpace=wrap;html=1;" vertex="1" parent="1">
          <mxGeometry x="416.25" y="750" width="120" height="60" as="geometry" />
        </mxCell>
        <mxCell id="DSJDT47khyLrC-sAC1qn-29" value="Yes" style="text;html=1;strokeColor=none;fillColor=none;align=center;verticalAlign=middle;whiteSpace=wrap;rounded=0;" vertex="1" parent="1">
          <mxGeometry x="476.25" y="710" width="60" height="30" as="geometry" />
        </mxCell>
        <mxCell id="DSJDT47khyLrC-sAC1qn-32" value="No" style="text;html=1;strokeColor=none;fillColor=none;align=center;verticalAlign=middle;whiteSpace=wrap;rounded=0;" vertex="1" parent="1">
          <mxGeometry x="260" y="565" width="60" height="30" as="geometry" />
        </mxCell>
        <mxCell id="DSJDT47khyLrC-sAC1qn-39" style="edgeStyle=orthogonalEdgeStyle;rounded=0;orthogonalLoop=1;jettySize=auto;html=1;" edge="1" parent="1" source="DSJDT47khyLrC-sAC1qn-37" target="DSJDT47khyLrC-sAC1qn-40">
          <mxGeometry relative="1" as="geometry">
            <mxPoint x="770" y="590" as="targetPoint" />
          </mxGeometry>
        </mxCell>
        <mxCell id="DSJDT47khyLrC-sAC1qn-37" value="Is Hangman complete?" style="rounded=1;whiteSpace=wrap;html=1;" vertex="1" parent="1">
          <mxGeometry x="600" y="560" width="120" height="60" as="geometry" />
        </mxCell>
        <mxCell id="DSJDT47khyLrC-sAC1qn-40" value="You lose" style="rounded=1;whiteSpace=wrap;html=1;" vertex="1" parent="1">
          <mxGeometry x="780" y="560" width="120" height="60" as="geometry" />
        </mxCell>
        <mxCell id="DSJDT47khyLrC-sAC1qn-41" value="Yes" style="text;html=1;strokeColor=none;fillColor=none;align=center;verticalAlign=middle;whiteSpace=wrap;rounded=0;" vertex="1" parent="1">
          <mxGeometry x="720" y="560" width="60" height="30" as="geometry" />
        </mxCell>
        <mxCell id="DSJDT47khyLrC-sAC1qn-42" value="" style="endArrow=classic;html=1;rounded=0;exitX=0;exitY=0.5;exitDx=0;exitDy=0;entryX=0.764;entryY=0.733;entryDx=0;entryDy=0;entryPerimeter=0;" edge="1" parent="1" source="DSJDT47khyLrC-sAC1qn-37" target="DSJDT47khyLrC-sAC1qn-11">
          <mxGeometry width="50" height="50" relative="1" as="geometry">
            <mxPoint x="510" y="590" as="sourcePoint" />
            <mxPoint x="560" y="540" as="targetPoint" />
          </mxGeometry>
        </mxCell>
        <mxCell id="DSJDT47khyLrC-sAC1qn-44" value="No" style="text;html=1;strokeColor=none;fillColor=none;align=center;verticalAlign=middle;whiteSpace=wrap;rounded=0;" vertex="1" parent="1">
          <mxGeometry x="525" y="530" width="60" height="30" as="geometry" />
        </mxCell>
        <mxCell id="DSJDT47khyLrC-sAC1qn-45" value="" style="endArrow=classic;html=1;rounded=0;exitX=0.5;exitY=1;exitDx=0;exitDy=0;entryX=0.764;entryY=0.25;entryDx=0;entryDy=0;entryPerimeter=0;" edge="1" parent="1" source="DSJDT47khyLrC-sAC1qn-10" target="DSJDT47khyLrC-sAC1qn-11">
          <mxGeometry width="50" height="50" relative="1" as="geometry">
            <mxPoint x="585" y="450" as="sourcePoint" />
            <mxPoint x="635" y="400" as="targetPoint" />
          </mxGeometry>
        </mxCell>
        <mxCell id="DSJDT47khyLrC-sAC1qn-46" value="Correct" style="text;html=1;strokeColor=none;fillColor=none;align=center;verticalAlign=middle;whiteSpace=wrap;rounded=0;" vertex="1" parent="1">
          <mxGeometry x="470" y="580" width="60" height="30" as="geometry" />
        </mxCell>
        <mxCell id="DSJDT47khyLrC-sAC1qn-48" style="edgeStyle=orthogonalEdgeStyle;rounded=0;orthogonalLoop=1;jettySize=auto;html=1;" edge="1" parent="1" source="DSJDT47khyLrC-sAC1qn-47" target="DSJDT47khyLrC-sAC1qn-49">
          <mxGeometry relative="1" as="geometry">
            <mxPoint x="476.25" y="220" as="targetPoint" />
          </mxGeometry>
        </mxCell>
        <mxCell id="DSJDT47khyLrC-sAC1qn-47" value="Generate a random word" style="rounded=1;whiteSpace=wrap;html=1;" vertex="1" parent="1">
          <mxGeometry x="416.25" y="120" width="120" height="40" as="geometry" />
        </mxCell>
        <mxCell id="DSJDT47khyLrC-sAC1qn-51" style="edgeStyle=orthogonalEdgeStyle;rounded=0;orthogonalLoop=1;jettySize=auto;html=1;entryX=0.5;entryY=0;entryDx=0;entryDy=0;entryPerimeter=0;" edge="1" parent="1" source="DSJDT47khyLrC-sAC1qn-49" target="DSJDT47khyLrC-sAC1qn-3">
          <mxGeometry relative="1" as="geometry" />
        </mxCell>
        <mxCell id="DSJDT47khyLrC-sAC1qn-49" value="Generate blanks for each letter of word" style="rounded=1;whiteSpace=wrap;html=1;" vertex="1" parent="1">
          <mxGeometry x="416.25" y="200" width="120" height="40" as="geometry" />
        </mxCell>
      </root>
    </mxGraphModel>
  </diagram>
</mxfile>
